PathFileType	4	(X/Y/Z)	C:/Users/beibeiliu/ov580/test_trc\sequence.15_training_dense_left.trc
DataRate	CameraRate	NumFrames	NumMarkers	Units	OrigDataRate	OrigDataStartFrame	OrigNumFrames
120	120	12	19	mm	120	52	153
Frame#	Time	ThumbCMC			ThumbMCP			ThumbIP			ThumbTip			IndexMCP			IndexPIP			IndexTip			MiddleMCP			MiddlePIP			MiddleTip			RingMCP			RingPIP			RingTip			PinkyMCP			PinkyPIP			PinkyTip			BackHand1			BackHand2			BackHand3	
		X0	Y0	Z0	X1	Y1	Z1	X2	Y2	Z2	X3	Y3	Z3	X4	Y4	Z4	X5	Y5	Z5	X6	Y6	Z6	X7	Y7	Z7	X8	Y8	Z8	X9	Y9	Z9	X10	Y10	Z10	X11	Y11	Z11	X12	Y12	Z12	X13	Y13	Z13	X14	Y14	Z14	X15	Y15	Z15	X16	Y16	Z16	X17	Y17	Z17	X18	Y18	Z18	
51	0.425	-200.067	40.7652	127.355	-176.043	40.7979	96.5473	-172.823	28.274	70.7307	-179.237	3.79255	52.7018	-236.485	35.4291	60.0255	-231.044	37.0153	32.1793	-218.061	34.8112	6.88723	-242.709	12.5833	57.2987	-245.436	13.3721	30.3864	-237.308	8.28707	-5.10247	-234.33	-4.30515	57.6088	-229.03	-5.9775	27.5249	-212.727	-6.56152	4.98797	-220.244	-24.7514	66.0402	-204.212	-16.7044	39.2805	-180.499	-1.19544	38.573	-234.548	-9.57536	108.485	-231.022	-14.8038	137.206	-238.924	20.6539	123.74	
52	0.433333	-174.256	35.5459	126.127	-149.094	27.8352	103.518	-144.558	15.5452	69.6938	-158.277	-5.13259	58.8358	-199.27	42.8827	59.1479	-190.761	43.0471	32.09	-175.674	36.1553	8.28822	-214.1	24.2472	50.1167	-211.282	26.6715	26.1461	-201.292	23.94	-4.4896	-211.743	1.76027	56.3019	-204.318	2.54464	26.8685	-187.285	-3.14773	2.89525	-206.961	-16.0857	63.2372	-186.109	-15.17	40.3871	-153.895	-13.4014	43.2635	-218.43	2.79121	104.126	-223.318	-2.76542	136.395	-213.472	33.0014	118.758	
53	0.441667	-147.166	19.7655	134.098	-125.553	1.02812	107.108	-122.224	-13.8904	80.5446	-141.234	-27.592	69.1068	-160.445	32.5246	62.2	-147.531	28.4839	35.8004	-136.122	19.5457	16.7014	-178.073	22.5291	51.7048	-174.252	18.2022	24.2062	-165.817	9.88054	-1.92598	-185.41	2.87819	55.693	-179.627	-6.36493	30.864	-164.798	-13.6967	9.47499	-190.874	-15.9564	66.6984	-170.497	-24.6021	45.679	-142.677	-35.3687	51.1019	-204.639	3.45838	107.87	-208.558	4.7941	134.12	-184.57	32.1425	119.253	
54	0.45	-129.086	-0.117601	136.898	-114.196	-25.8007	120.667	-111.3	-42.9879	94.5113	-132.138	-52.0841	80.7084	-131.922	10.8112	67.0125	-117.317	1.28179	40.9037	-108.657	-11.0988	25.1746	-156.35	3.72274	57.7315	-146.394	-1.2285	29.4281	-138.056	-11.3987	3.54172	-169.23	-13.1548	61.2864	-161.32	-24.4455	33.6511	-146.089	-36.111	16.4818	-176.554	-27.3618	68.6474	-158.981	-43.5944	53.4263	-136.212	-58.9757	66.1885	-186.556	-0.425766	107.898	-193.5	1.01258	137.306	-160.579	19.6231	124.133	
55	0.458333	-120.738	-19.0804	145.916	-105.372	-48.5067	129.398	-107.638	-64.8381	107.739	-125.521	-75.1986	88.178	-116.067	-11.6217	75.9767	-101.915	-24.9057	52.3084	-92.3815	-41.5618	34.7821	-136.431	-13.9445	64.6277	-127.573	-21.2931	37.0169	-123.395	-35.307	14.7284	-152.424	-26.5706	69.5271	-145.359	-42.3507	39.2715	-132.982	-58.5025	24.7898	-167.007	-41.7078	75.6592	-150.111	-59.5954	61.7276	-131.207	-82.6744	81.5806	-169.443	-11.3678	113.267	-177.343	-4.46617	138.258	-147.474	7.20481	130.314	
56	0.466667	-113.752	-22.7954	149.627	-97.7697	-53.0222	137.701	-95.5003	-72.5977	115.719	-112.788	-83.7617	98.02	-105.086	-21.1512	79.1044	-90.5617	-34.8523	60.2669	-80.5039	-51.4535	45.1984	-127.161	-25.8761	66.8608	-118.434	-37.4564	41.723	-110.339	-53.0963	18.6333	-143.397	-39.3922	74.0069	-133.164	-56.7322	46.7324	-115.847	-74.0714	33.2225	-156.478	-51.676	84.8768	-139.51	-70.7839	69.4704	-121.509	-90.6411	91.9342	-165.66	-22.2635	110.535	-176.883	-11.4335	140.58	-139.24	-1.5938	129.308	
57	0.475	-120.904	-7.86428	149.792	-97.4242	-32.7441	139.174	-91.0012	-54.3539	117.255	-100.76	-69.86	102.864	-108.184	-13.1805	74.9136	-93.421	-26.3649	57.5938	-76.4338	-41.298	44.7469	-129.964	-25.2646	65.7059	-118.953	-34.3879	45.3221	-101.679	-50.7974	20.5476	-137.37	-42.334	70.1065	-123.025	-55.5631	50.6259	-104.572	-70.0785	40.7336	-147.971	-57.724	85.6336	-122.21	-75.2464	77.5585	-102.927	-81.1743	101.48	-166.721	-27.9063	113.315	-177.286	-14.4659	137.386	-151.759	2.56068	126.267	
58	0.483333	-129.258	10.4993	146.258	-100.232	-8.94712	136.075	-85.3267	-25.1316	119.309	-89.5715	-48.5154	102.567	-120.821	-1.62502	73.3248	-101.641	-9.54734	55.2441	-77.5291	-21.9492	40.7454	-133.784	-21.904	67.0295	-115.713	-29.5921	41.0751	-97.2086	-38.9061	20.7646	-136.168	-40.6986	74.0664	-115.471	-51.7384	53.5466	-93.5844	-58.0606	43.9135	-136.812	-57.0422	87.7409	-108.066	-61.6748	82.9023	-89.0412	-56.0563	110.945	-164.853	-27.8663	110.507	-181.996	-22.9983	138.08	-163.797	2.30808	120.823	
59	0.491667	-147.806	22.9274	139.913	-113.143	15.0924	129.196	-93.7438	3.21093	112.802	-91.0607	-22.0953	100.69	-134.258	7.77119	63.5639	-112.881	7.76702	46.2247	-93.5742	-0.353733	36.8357	-139.562	-18.7926	60.6133	-124.25	-19.7642	40.4663	-101.481	-27.4309	20.9169	-133.561	-36.2171	70.1035	-111.517	-38.2214	51.6814	-85.1095	-40.7732	39.4832	-129.682	-48.5911	90.4738	-97.4966	-42.5507	84.7988	-86.3869	-28.5498	105.636	-168.622	-35.103	114.02	-184.098	-31.2105	136.439	-177.272	2.66385	116.498	
60	0.5	-168.559	25.7918	132.263	-134.442	29.3319	120.482	-108.772	23.1024	100.782	-101.659	0.259611	93.7353	-155.024	5.48264	62.9486	-135.126	7.98437	41.8451	-108.808	9.62813	26.5767	-151.095	-15.773	57.5533	-134.553	-18.4313	37.7531	-112.324	-15.5345	12.1106	-137.758	-32.7876	69.0122	-115.709	-32.6603	49.5665	-94.937	-23.8934	36.106	-129.086	-39.2586	87.3819	-102.258	-29.388	77.4576	-87.3729	-6.60362	92.7506	-167.716	-35.3465	109.39	-184.421	-34.635	138.507	-186.277	-9.9953	115.801	
61	0.508333	-186.2	22.4183	125.45	-154.876	35.5614	111.497	-132.187	34.4398	93.1045	-115.23	10.9686	82.5174	-171.837	-2.01513	58.095	-154.926	5.21828	34.4242	-136.471	14.982	17.5888	-162.56	-21.6073	53.0726	-146.123	-21.5589	29.7183	-128.449	-15.8372	6.60947	-144.436	-34.0283	67.6256	-127.77	-28.0829	43.7455	-105.002	-17.1377	28.0618	-132.073	-38.7597	81.7576	-112.434	-20.7146	67.5961	-104.565	6.06918	76.8138	-169.744	-39.6154	108.678	-183.434	-39.5943	135.853	-201.2	-15.9496	114.254	
62	0.516667	-202.868	12.0099	123.657	-174.691	28.1494	101.961	-155.951	28.5113	85.7261	-135.833	7.21867	75.5122	-189.678	-14.5246	52.7601	-178.226	-7.44314	30.9335	-157.131	3.33039	11.8769	-177.48	-33.2267	54.1019	-165.015	-30.9586	25.644	-147.096	-27.6634	3.9608	-156.121	-40.1856	63.5584	-144.677	-34.3894	40.3106	-124.785	-19.0536	20.2601	-143.439	-41.4793	80.6262	-126.843	-24.8387	61.0949	-120.73	6.91428	64.258	-180.65	-46.4445	113.617	-189.52	-44.9809	138.42	-208.508	-29.0147	115.739	
